<mxfile host="Electron" modified="2024-01-25T17:33:59.174Z" agent="Mozilla/5.0 (X11; Linux x86_64) AppleWebKit/537.36 (KHTML, like Gecko) draw.io/22.0.3 Chrome/118.0.5993.54 Electron/27.0.0 Safari/537.36" etag="UYG4tiKm6LJ7sqYzd-s7" version="22.0.3" type="device">
  <diagram name="Page-1" id="fg_HgKuVoJV8T_XIiP7p">
    <mxGraphModel dx="796" dy="503" grid="1" gridSize="10" guides="0" tooltips="1" connect="1" arrows="1" fold="1" page="1" pageScale="1" pageWidth="850" pageHeight="1100" math="0" shadow="0">
      <root>
        <mxCell id="0" />
        <mxCell id="1" parent="0" />
        <mxCell id="2zSmZUgKSDBmf7o0JaEy-4" value="" style="endArrow=none;html=1;rounded=0;exitX=0.5;exitY=0;exitDx=0;exitDy=0;" edge="1" parent="1" source="2zSmZUgKSDBmf7o0JaEy-19" target="2zSmZUgKSDBmf7o0JaEy-1">
          <mxGeometry width="50" height="50" relative="1" as="geometry">
            <mxPoint x="220" y="150" as="sourcePoint" />
            <mxPoint x="100" y="100" as="targetPoint" />
          </mxGeometry>
        </mxCell>
        <mxCell id="2zSmZUgKSDBmf7o0JaEy-1" value="" style="ellipse;whiteSpace=wrap;html=1;aspect=fixed;fillColor=#f8cecc;strokeColor=#b85450;" vertex="1" parent="1">
          <mxGeometry x="80" y="80" width="10" height="10" as="geometry" />
        </mxCell>
        <mxCell id="2zSmZUgKSDBmf7o0JaEy-2" value="" style="ellipse;whiteSpace=wrap;html=1;aspect=fixed;fillColor=#f8cecc;strokeColor=#b85450;" vertex="1" parent="1">
          <mxGeometry x="80" y="100" width="10" height="10" as="geometry" />
        </mxCell>
        <mxCell id="2zSmZUgKSDBmf7o0JaEy-3" value="" style="ellipse;whiteSpace=wrap;html=1;aspect=fixed;fillColor=#f8cecc;strokeColor=#b85450;" vertex="1" parent="1">
          <mxGeometry x="80" y="120" width="10" height="10" as="geometry" />
        </mxCell>
        <mxCell id="2zSmZUgKSDBmf7o0JaEy-5" value="" style="ellipse;whiteSpace=wrap;html=1;aspect=fixed;fillColor=#f8cecc;strokeColor=#b85450;" vertex="1" parent="1">
          <mxGeometry x="80" y="140" width="10" height="10" as="geometry" />
        </mxCell>
        <mxCell id="2zSmZUgKSDBmf7o0JaEy-6" value="" style="ellipse;whiteSpace=wrap;html=1;aspect=fixed;fillColor=#f8cecc;strokeColor=#b85450;" vertex="1" parent="1">
          <mxGeometry x="80" y="160" width="10" height="10" as="geometry" />
        </mxCell>
        <mxCell id="2zSmZUgKSDBmf7o0JaEy-7" value="" style="ellipse;whiteSpace=wrap;html=1;aspect=fixed;fillColor=#f8cecc;strokeColor=#b85450;" vertex="1" parent="1">
          <mxGeometry x="80" y="180" width="10" height="10" as="geometry" />
        </mxCell>
        <mxCell id="2zSmZUgKSDBmf7o0JaEy-8" value="" style="ellipse;whiteSpace=wrap;html=1;aspect=fixed;fillColor=#f8cecc;strokeColor=#b85450;" vertex="1" parent="1">
          <mxGeometry x="80" y="200" width="10" height="10" as="geometry" />
        </mxCell>
        <mxCell id="2zSmZUgKSDBmf7o0JaEy-9" value="" style="ellipse;whiteSpace=wrap;html=1;aspect=fixed;fillColor=#f8cecc;strokeColor=#b85450;" vertex="1" parent="1">
          <mxGeometry x="80" y="220" width="10" height="10" as="geometry" />
        </mxCell>
        <mxCell id="2zSmZUgKSDBmf7o0JaEy-10" value="" style="ellipse;whiteSpace=wrap;html=1;aspect=fixed;fillColor=#f8cecc;strokeColor=#b85450;" vertex="1" parent="1">
          <mxGeometry x="80" y="240" width="10" height="10" as="geometry" />
        </mxCell>
        <mxCell id="2zSmZUgKSDBmf7o0JaEy-11" value="" style="ellipse;whiteSpace=wrap;html=1;aspect=fixed;fillColor=#f8cecc;strokeColor=#b85450;" vertex="1" parent="1">
          <mxGeometry x="80" y="260" width="10" height="10" as="geometry" />
        </mxCell>
        <mxCell id="2zSmZUgKSDBmf7o0JaEy-12" value="" style="ellipse;whiteSpace=wrap;html=1;aspect=fixed;fillColor=#f8cecc;strokeColor=#b85450;" vertex="1" parent="1">
          <mxGeometry x="80" y="280" width="10" height="10" as="geometry" />
        </mxCell>
        <mxCell id="2zSmZUgKSDBmf7o0JaEy-13" value="" style="ellipse;whiteSpace=wrap;html=1;aspect=fixed;fillColor=#d5e8d4;strokeColor=#82b366;" vertex="1" parent="1">
          <mxGeometry x="80" y="300" width="10" height="10" as="geometry" />
        </mxCell>
        <mxCell id="2zSmZUgKSDBmf7o0JaEy-14" value="" style="ellipse;whiteSpace=wrap;html=1;aspect=fixed;fillColor=#d5e8d4;strokeColor=#82b366;" vertex="1" parent="1">
          <mxGeometry x="80" y="320" width="10" height="10" as="geometry" />
        </mxCell>
        <mxCell id="2zSmZUgKSDBmf7o0JaEy-15" value="" style="ellipse;whiteSpace=wrap;html=1;aspect=fixed;fillColor=#d5e8d4;strokeColor=#82b366;" vertex="1" parent="1">
          <mxGeometry x="80" y="340" width="10" height="10" as="geometry" />
        </mxCell>
        <mxCell id="2zSmZUgKSDBmf7o0JaEy-16" value="" style="ellipse;whiteSpace=wrap;html=1;aspect=fixed;fillColor=#d5e8d4;strokeColor=#82b366;" vertex="1" parent="1">
          <mxGeometry x="80" y="360" width="10" height="10" as="geometry" />
        </mxCell>
        <mxCell id="2zSmZUgKSDBmf7o0JaEy-17" value="" style="ellipse;whiteSpace=wrap;html=1;aspect=fixed;fillColor=#d5e8d4;strokeColor=#82b366;" vertex="1" parent="1">
          <mxGeometry x="80" y="380" width="10" height="10" as="geometry" />
        </mxCell>
        <mxCell id="2zSmZUgKSDBmf7o0JaEy-18" value="" style="ellipse;whiteSpace=wrap;html=1;aspect=fixed;fillColor=#d5e8d4;strokeColor=#82b366;" vertex="1" parent="1">
          <mxGeometry x="80" y="400" width="10" height="10" as="geometry" />
        </mxCell>
        <mxCell id="2zSmZUgKSDBmf7o0JaEy-19" value="" style="ellipse;whiteSpace=wrap;html=1;aspect=fixed;fillColor=#d5e8d4;strokeColor=#82b366;" vertex="1" parent="1">
          <mxGeometry x="80" y="420" width="10" height="10" as="geometry" />
        </mxCell>
        <mxCell id="2zSmZUgKSDBmf7o0JaEy-20" value="" style="endArrow=classic;html=1;rounded=1;" edge="1" parent="1" source="2zSmZUgKSDBmf7o0JaEy-1" target="2zSmZUgKSDBmf7o0JaEy-10">
          <mxGeometry width="50" height="50" relative="1" as="geometry">
            <mxPoint x="150" y="260" as="sourcePoint" />
            <mxPoint x="200" y="210" as="targetPoint" />
            <Array as="points">
              <mxPoint x="130" y="100" />
              <mxPoint x="130" y="230" />
            </Array>
          </mxGeometry>
        </mxCell>
        <mxCell id="2zSmZUgKSDBmf7o0JaEy-21" value="" style="endArrow=classic;html=1;rounded=1;" edge="1" parent="1" source="2zSmZUgKSDBmf7o0JaEy-10" target="2zSmZUgKSDBmf7o0JaEy-14">
          <mxGeometry width="50" height="50" relative="1" as="geometry">
            <mxPoint x="90" y="350" as="sourcePoint" />
            <mxPoint x="140" y="300" as="targetPoint" />
            <Array as="points">
              <mxPoint x="130" y="250" />
              <mxPoint x="130" y="320" />
            </Array>
          </mxGeometry>
        </mxCell>
        <mxCell id="2zSmZUgKSDBmf7o0JaEy-22" value="" style="endArrow=classic;html=1;rounded=1;" edge="1" parent="1" source="2zSmZUgKSDBmf7o0JaEy-14" target="2zSmZUgKSDBmf7o0JaEy-12">
          <mxGeometry width="50" height="50" relative="1" as="geometry">
            <mxPoint x="95" y="320" as="sourcePoint" />
            <mxPoint x="90" y="398" as="targetPoint" />
            <Array as="points">
              <mxPoint x="110" y="310" />
              <mxPoint x="110" y="280" />
            </Array>
          </mxGeometry>
        </mxCell>
        <mxCell id="2zSmZUgKSDBmf7o0JaEy-23" value="" style="endArrow=classic;html=1;rounded=1;" edge="1" parent="1" source="2zSmZUgKSDBmf7o0JaEy-12" target="2zSmZUgKSDBmf7o0JaEy-13">
          <mxGeometry width="50" height="50" relative="1" as="geometry">
            <mxPoint x="110" y="366" as="sourcePoint" />
            <mxPoint x="111" y="330" as="targetPoint" />
            <Array as="points">
              <mxPoint x="100" y="290" />
              <mxPoint x="110" y="300" />
            </Array>
          </mxGeometry>
        </mxCell>
        <mxCell id="2zSmZUgKSDBmf7o0JaEy-26" value="1: bad" style="text;html=1;strokeColor=none;fillColor=none;align=right;verticalAlign=middle;whiteSpace=wrap;rounded=0;" vertex="1" parent="1">
          <mxGeometry x="40" y="240" width="40" height="10" as="geometry" />
        </mxCell>
        <mxCell id="2zSmZUgKSDBmf7o0JaEy-27" value="2: good" style="text;html=1;strokeColor=none;fillColor=none;align=right;verticalAlign=middle;whiteSpace=wrap;rounded=0;" vertex="1" parent="1">
          <mxGeometry x="30" y="320" width="50" height="10" as="geometry" />
        </mxCell>
        <mxCell id="2zSmZUgKSDBmf7o0JaEy-28" value="3: bad" style="text;html=1;strokeColor=none;fillColor=none;align=right;verticalAlign=middle;whiteSpace=wrap;rounded=0;" vertex="1" parent="1">
          <mxGeometry x="40" y="280" width="40" height="10" as="geometry" />
        </mxCell>
        <mxCell id="2zSmZUgKSDBmf7o0JaEy-29" value="4: good" style="text;html=1;strokeColor=none;fillColor=none;align=right;verticalAlign=middle;whiteSpace=wrap;rounded=0;" vertex="1" parent="1">
          <mxGeometry x="30" y="300" width="50" height="10" as="geometry" />
        </mxCell>
        <mxCell id="2zSmZUgKSDBmf7o0JaEy-31" value="HEAD" style="text;html=1;strokeColor=none;fillColor=none;align=right;verticalAlign=middle;whiteSpace=wrap;rounded=0;" vertex="1" parent="1">
          <mxGeometry x="40" y="80" width="40" height="10" as="geometry" />
        </mxCell>
      </root>
    </mxGraphModel>
  </diagram>
</mxfile>
